<svg width="180" height="55" viewBox="0 0 180 55" fill="none" xmlns="http://www.w3.org/2000/svg">
<path d="M65.1802 27.8996C66.3708 28.0353 67.2475 28.3191 67.8102 28.7512C68.3778 29.1832 68.6617 29.7735 68.6617 30.5221C68.6617 31.5721 68.2422 32.3483 67.4032 32.8506C66.5642 33.348 65.3058 33.5967 63.6278 33.5967H57.976V22.293H63.1003C66.4663 22.293 68.1493 23.2676 68.1493 25.2169C68.1493 25.6942 68.0488 26.0986 67.8478 26.4302C67.6519 26.7567 67.3354 27.0255 66.8983 27.2365C66.4663 27.4475 65.8936 27.6032 65.1802 27.7037V27.8996ZM60.7491 24.7949V26.92H62.6331C63.4871 26.92 64.1377 26.8371 64.5848 26.6713C65.032 26.5005 65.2555 26.2166 65.2555 25.8198C65.2555 25.5635 65.1852 25.3626 65.0445 25.2169C64.9089 25.0662 64.6778 24.9582 64.3512 24.8929C64.0297 24.8276 63.5776 24.7949 62.9948 24.7949H60.7491ZM63.5223 31.0948C64.0347 31.0948 64.4517 31.0672 64.7732 31.0119C65.0948 30.9516 65.3434 30.8411 65.5193 30.6803C65.6951 30.5196 65.783 30.286 65.783 29.9795C65.783 29.5575 65.5318 29.2561 65.0295 29.0752C64.5271 28.8944 63.7986 28.8039 62.8441 28.8039H60.7491V31.0948H63.5223ZM74.0187 23.6947C75.6766 23.6947 76.8823 24.0338 77.6359 24.712C78.3894 25.3902 78.7662 26.4126 78.7662 27.7791V33.6118H75.9629L76.189 30.5673L76.0383 30.5522C75.7268 31.6273 75.2194 32.4462 74.516 33.0089C73.8127 33.5716 72.9838 33.8529 72.0292 33.8529C71.1601 33.8529 70.4919 33.672 70.0247 33.3103C69.5625 32.9486 69.3314 32.4161 69.3314 31.7127C69.3314 31.0948 69.5274 30.615 69.9192 30.2734C70.3111 29.9268 70.9089 29.6906 71.7127 29.565V29.4143L69.3767 29.1355C69.2912 28.8843 69.2284 28.6557 69.1883 28.4497C69.1531 28.2387 69.1355 27.9901 69.1355 27.7037C69.1355 26.9652 69.3113 26.2945 69.663 25.6917C70.0197 25.0838 70.5648 24.599 71.2983 24.2373C72.0318 23.8755 72.9386 23.6947 74.0187 23.6947ZM73.9885 26.0911C73.5816 26.0911 73.2174 26.1664 72.8959 26.3171C72.5743 26.4678 72.3206 26.6889 72.1347 26.9803C71.9539 27.2666 71.8635 27.6133 71.8635 28.0202C71.8635 28.3015 71.8936 28.5552 71.9539 28.7813C72.0192 29.0024 72.1197 29.2184 72.2553 29.4294L72.9712 29.241C73.7248 29.0401 74.2975 28.8768 74.6894 28.7512C75.0812 28.6206 75.3977 28.4724 75.6389 28.3066C75.885 28.1358 76.0081 27.9348 76.0081 27.7037C76.0081 27.136 75.8373 26.7266 75.4957 26.4754C75.1541 26.2192 74.6517 26.0911 73.9885 26.0911ZM73.0692 31.9087C73.4661 31.9087 73.8278 31.8559 74.1543 31.7504C74.4809 31.6399 74.7974 31.449 75.1038 31.1777C75.4103 30.9014 75.7117 30.5196 76.0081 30.0323V28.6834L75.88 28.6306C75.6941 28.7763 75.4354 28.9145 75.1038 29.0451C74.7773 29.1707 74.3101 29.3113 73.7022 29.4671C73.1998 29.5927 72.813 29.7208 72.5417 29.8514C72.2704 29.982 72.0795 30.1302 71.969 30.296C71.8584 30.4618 71.8032 30.6678 71.8032 30.9139C71.8032 31.2204 71.9087 31.4641 72.1197 31.6449C72.3307 31.8207 72.6472 31.9087 73.0692 31.9087ZM89.606 28.8341C89.6411 29.0601 89.6587 29.2988 89.6587 29.55C89.6587 30.3337 89.4728 31.0521 89.1011 31.7052C88.7293 32.3533 88.1767 32.8707 87.4432 33.2576C86.7097 33.6444 85.828 33.8378 84.7981 33.8378C83.0951 33.8378 81.8115 33.4183 80.9474 32.5794C80.0883 31.7353 79.6587 30.4367 79.6587 28.6834C79.6587 27.6133 79.8848 26.704 80.337 25.9554C80.7941 25.2018 81.3844 24.6366 82.1079 24.2599C82.8313 23.8831 83.5924 23.6947 84.3912 23.6947C85.3357 23.6947 86.1671 23.8404 86.8855 24.1318C87.609 24.4181 88.1767 24.8652 88.5886 25.4731C89.0006 26.081 89.2091 26.8497 89.2141 27.7791L87.1116 28.3442L87.1192 28.4347L89.606 28.8341ZM84.7529 31.4113C85.1599 31.4113 85.5266 31.3309 85.8531 31.1702C86.1797 31.0094 86.4359 30.7708 86.6218 30.4543C86.8127 30.1327 86.9082 29.7484 86.9082 29.3013C86.9082 29.0099 86.8428 28.7261 86.7122 28.4497L86.3957 28.5326C86.4058 28.4523 86.4108 28.3317 86.4108 28.1709C86.4108 27.4776 86.2299 26.9627 85.8682 26.6261C85.5115 26.2895 85.0393 26.1212 84.4515 26.1212C83.8637 26.1212 83.3789 26.3196 82.9971 26.7165C82.6203 27.1134 82.4319 27.769 82.4319 28.6834C82.4319 29.663 82.6278 30.3638 83.0197 30.7858C83.4166 31.2028 83.9943 31.4113 84.7529 31.4113ZM100.31 33.5967H97.0245L93.3771 29.03H93.1963L93.3319 33.5967H90.5588V22.293H93.3319V23.9358L93.1963 28.5326H93.3696L96.9792 23.9509H99.9935L96.0599 28.397L94.2513 28.706V28.8567L96.2859 29.1204L100.31 33.5967ZM109.476 33.5063C108.752 33.6972 108.134 33.7926 107.622 33.7926C105.482 33.7926 104.412 32.7677 104.412 30.718V26.2418H103.176V23.9358H104.412V22.4136L107.185 22.1574V23.9358H109.325L109.129 26.2418H107.185V30.0247C107.185 30.3161 107.215 30.5447 107.275 30.7105C107.341 30.8763 107.449 30.9968 107.599 31.0722C107.75 31.1476 107.958 31.1852 108.225 31.1852C108.526 31.2003 108.908 31.1149 109.37 30.929L109.476 33.5063ZM114.882 33.8529C113.174 33.8529 111.893 33.4334 111.039 32.5944C110.185 31.7504 109.758 30.4467 109.758 28.6834C109.758 27.6083 109.989 26.6964 110.451 25.9479C110.913 25.1943 111.524 24.6316 112.282 24.2599C113.046 23.8831 113.872 23.6947 114.761 23.6947C116.495 23.6947 117.791 24.1167 118.65 24.9607C119.514 25.8047 119.946 27.1109 119.946 28.8793C119.946 29.9293 119.717 30.8285 119.26 31.5771C118.808 32.3256 118.198 32.8933 117.429 33.2802C116.66 33.662 115.811 33.8529 114.882 33.8529ZM114.912 31.5017C115.384 31.5017 115.784 31.4289 116.11 31.2832C116.437 31.1325 116.693 30.8637 116.879 30.4769C117.065 30.09 117.158 29.5575 117.158 28.8793C117.158 27.8896 116.937 27.1762 116.495 26.7391C116.058 26.297 115.49 26.076 114.792 26.076C114.314 26.076 113.912 26.1513 113.586 26.3021C113.259 26.4477 113.001 26.7115 112.81 27.0933C112.624 27.4751 112.531 28.0051 112.531 28.6834C112.531 29.6831 112.752 30.404 113.194 30.8461C113.636 31.2832 114.209 31.5017 114.912 31.5017ZM132.538 27.2591C133.407 27.5002 134.038 27.8645 134.43 28.3518C134.827 28.8341 135.025 29.4721 135.025 30.2659C135.025 31.4666 134.55 32.3658 133.601 32.9637C132.656 33.5565 131.232 33.8529 129.328 33.8529C128.213 33.8529 127.253 33.7122 126.449 33.4309C125.651 33.1496 125.043 32.7577 124.626 32.2553C124.214 31.7529 124.008 31.1752 124.008 30.5221C124.008 30.1051 124.093 29.6982 124.264 29.3013L126.284 28.9396V28.7587C125.726 28.5879 125.284 28.3643 124.957 28.088C124.636 27.8067 124.407 27.4726 124.272 27.0858C124.136 26.6939 124.068 26.2267 124.068 25.6841C124.068 24.9205 124.269 24.2674 124.671 23.7248C125.078 23.1772 125.663 22.7628 126.427 22.4814C127.195 22.1951 128.117 22.0519 129.192 22.0519C130.865 22.0519 132.172 22.3357 133.111 22.9034C134.05 23.4711 134.553 24.3528 134.618 25.5485C134.618 25.8147 134.593 26.1061 134.543 26.4226L132.538 27.0707V27.2591ZM128.951 24.4181C127.394 24.4181 126.615 24.8401 126.615 25.6841C126.615 25.9202 126.708 26.1111 126.894 26.2568C127.08 26.4025 127.444 26.5281 127.987 26.6336C128.529 26.7391 129.343 26.8396 130.428 26.9351C130.946 26.9752 131.403 27.0305 131.8 27.1008C131.87 26.8044 131.905 26.5482 131.905 26.3322C131.885 25.654 131.616 25.1667 131.099 24.8703C130.582 24.5688 129.866 24.4181 128.951 24.4181ZM129.569 31.6072C130.554 31.6072 131.262 31.5017 131.694 31.2907C132.126 31.0797 132.342 30.7582 132.342 30.3262C132.342 30.0649 132.244 29.8665 132.048 29.7308C131.853 29.5952 131.486 29.4847 130.948 29.3993C130.416 29.3138 129.559 29.2209 128.379 29.1204C127.957 29.0853 127.522 29.03 127.075 28.9546C126.869 29.3214 126.766 29.7007 126.766 30.0925C126.766 30.5849 126.984 30.9617 127.422 31.2229C127.864 31.4791 128.58 31.6072 129.569 31.6072ZM142.368 23.77C143.469 23.77 144.305 24.1493 144.878 24.9079C145.456 25.6665 145.744 26.8898 145.744 28.5779V33.5967H142.971V28.8039C142.971 28.1358 142.898 27.6032 142.753 27.2063C142.612 26.8095 142.401 26.5256 142.12 26.3548C141.838 26.179 141.474 26.0911 141.027 26.0911C140.6 26.0911 140.218 26.2066 139.882 26.4377C139.545 26.6638 139.281 26.9953 139.09 27.4324C138.904 27.8695 138.811 28.3869 138.811 28.9848V33.5967H136.038V22.293H138.811V23.9358L138.555 27.5379L138.691 27.553C138.842 26.5633 139.075 25.7921 139.392 25.2395C139.713 24.6869 140.113 24.3051 140.59 24.0941C141.072 23.878 141.665 23.77 142.368 23.77ZM156.816 28.8642C156.846 29.0802 156.861 29.2988 156.861 29.5198C156.861 30.3186 156.673 31.0446 156.296 31.6977C155.919 32.3508 155.351 32.8707 154.593 33.2576C153.834 33.6444 152.912 33.8378 151.827 33.8378C150.094 33.8378 148.79 33.4208 147.916 32.5869C147.047 31.7479 146.612 30.4467 146.612 28.6834C146.612 27.6183 146.841 26.709 147.298 25.9554C147.755 25.2018 148.348 24.6366 149.076 24.2599C149.805 23.8831 150.571 23.6947 151.375 23.6947C152.817 23.6947 153.97 24.0288 154.834 24.6969C155.698 25.3601 156.173 26.3774 156.258 27.7489L154.389 28.3292V28.51L156.816 28.8642ZM151.39 25.8951C150.807 25.8951 150.327 26.1086 149.951 26.5357C149.574 26.9627 149.385 27.6786 149.385 28.6834C149.385 28.8994 149.398 29.1204 149.423 29.3465L153.44 28.0956C153.374 27.3068 153.161 26.7442 152.799 26.4076C152.442 26.0659 151.973 25.8951 151.39 25.8951ZM151.842 31.5168C152.264 31.5168 152.648 31.4364 152.995 31.2757C153.342 31.1099 153.618 30.8662 153.824 30.5447C154.03 30.2181 154.133 29.8238 154.133 29.3616C154.133 29.2008 154.115 29.0551 154.08 28.9245C154.045 28.7889 153.992 28.6407 153.922 28.4799L149.514 29.8514C149.664 30.4392 149.936 30.8637 150.327 31.1249C150.724 31.3862 151.229 31.5168 151.842 31.5168ZM160.521 22.082V33.5967H157.748V22.6547L160.521 22.082ZM166.436 24.6743C166.049 24.6743 165.78 24.7547 165.63 24.9155C165.484 25.0762 165.411 25.3425 165.411 25.7143V26.0609H167.491L167.28 28.3518H165.411V33.5967H162.638L162.645 28.3518H161.462V26.0609H162.653V25.1415C162.653 24.0564 162.927 23.2702 163.474 22.7828C164.022 22.2955 164.798 22.0519 165.803 22.0519C166.255 22.0519 166.853 22.1323 167.596 22.293L167.491 24.8853C167.029 24.7447 166.677 24.6743 166.436 24.6743Z" fill="white"/>
<circle cx="25.5852" cy="26.8049" r="20.7234" transform="rotate(-180 25.5852 26.8049)" fill="#18004C"/>
<circle cx="25.5844" cy="26.8075" r="18.1329" transform="rotate(-180 25.5844 26.8075)" stroke="white" stroke-width="1.41296"/>
<rect x="13.377" y="32.8389" width="24.3243" height="1.82432" rx="0.912162" fill="white"/>
<rect x="13.377" y="26.1494" width="24.3243" height="1.82432" rx="0.912162" fill="white"/>
<rect x="13.377" y="19.4604" width="24.3243" height="1.82432" rx="0.912162" fill="white"/>
</svg>
