<svg width="192" height="66" viewBox="0 0 192 66" fill="none" xmlns="http://www.w3.org/2000/svg">
<rect width="192" height="65.1228" rx="32.5614" fill="url(#paint0_linear_418_5672)"/>
<path d="M31.7183 26.8945V36.7105H37.7903V38.8945H29.2383V26.8945H31.7183ZM48.1273 35.2145C48.1486 35.3585 48.1593 35.5159 48.1593 35.6865C48.1593 36.3319 47.978 36.9159 47.6153 37.4385C47.258 37.9559 46.714 38.3665 45.9833 38.6705C45.2526 38.9745 44.3566 39.1265 43.2953 39.1265C39.9193 39.1265 38.2313 37.4199 38.2313 34.0065C38.2313 32.9665 38.45 32.0705 38.8873 31.3185C39.33 30.5665 39.9086 29.9985 40.6233 29.6145C41.3433 29.2252 42.1166 29.0305 42.9433 29.0305C44.298 29.0305 45.3886 29.3745 46.2153 30.0625C47.0473 30.7505 47.5113 31.8065 47.6073 33.2305L40.7673 35.3425C40.9326 35.9719 41.2286 36.4199 41.6553 36.6865C42.082 36.9532 42.6313 37.0865 43.3033 37.0865C44.0553 37.0865 44.6473 36.9292 45.0793 36.6145C45.5166 36.2999 45.7353 35.8545 45.7353 35.2785C45.7353 35.1132 45.7006 34.9612 45.6313 34.8225L48.1273 35.2145ZM42.9913 30.9905C42.2766 30.9905 41.7033 31.2199 41.2713 31.6785C40.8393 32.1372 40.6233 32.9132 40.6233 34.0065C40.6233 34.1985 40.626 34.3372 40.6313 34.4225L45.1833 33.0465C45.1246 32.3532 44.89 31.8385 44.4793 31.5025C44.074 31.1612 43.578 30.9905 42.9913 30.9905ZM55.6342 38.8305C54.7915 39.0119 54.0075 39.1025 53.2822 39.1025C52.6155 39.1025 52.0609 38.9959 51.6182 38.7825C51.1755 38.5692 50.8395 38.2225 50.6102 37.7425C50.3809 37.2572 50.2662 36.6145 50.2662 35.8145V31.2465H48.4262V29.2625H50.2662V27.1185L52.6822 26.8385V29.2625H55.4982L55.3062 31.2465H52.6822V35.7825C52.6822 36.0545 52.7169 36.2679 52.7862 36.4225C52.8555 36.5772 52.9702 36.6892 53.1302 36.7585C53.2955 36.8279 53.5275 36.8625 53.8262 36.8625C54.3115 36.8625 54.8795 36.7665 55.5302 36.5745L55.6342 38.8305ZM58.5064 27.6465C58.4104 28.0199 58.2878 28.4252 58.1384 28.8625C57.9891 29.2999 57.8238 29.7372 57.6424 30.1745C57.4718 30.6012 57.3011 31.0065 57.1304 31.3905H56.0904C56.1651 31.0919 56.2398 30.7719 56.3144 30.4305C56.3998 30.0892 56.4744 29.7479 56.5384 29.4065C56.6131 29.0545 56.6771 28.7132 56.7304 28.3825C56.7944 28.0519 56.8478 27.7479 56.8904 27.4705H58.3944L58.5064 27.6465ZM68.1833 36.1345C68.1833 37.1425 67.8046 37.8945 67.0473 38.3905C66.2953 38.8812 65.1513 39.1265 63.6153 39.1265C62.6446 39.1265 61.834 39.0145 61.1833 38.7905C60.5326 38.5665 60.0473 38.2519 59.7273 37.8465C59.4126 37.4359 59.2553 36.9559 59.2553 36.4065C59.2553 36.2465 59.266 36.0999 59.2873 35.9665L61.5513 35.5265C61.5033 35.6759 61.4793 35.8305 61.4793 35.9905C61.4793 36.4065 61.6606 36.7265 62.0233 36.9505C62.3913 37.1692 62.9806 37.2785 63.7913 37.2785C64.554 37.2785 65.1113 37.1985 65.4633 37.0385C65.8206 36.8785 65.9993 36.6012 65.9993 36.2065C65.9993 35.9559 65.9113 35.7585 65.7353 35.6145C65.5593 35.4705 65.2606 35.3532 64.8393 35.2625C64.418 35.1665 63.7913 35.0732 62.9593 34.9825C61.9886 34.8759 61.2393 34.7105 60.7113 34.4865C60.1886 34.2625 59.8233 33.9585 59.6153 33.5745C59.4126 33.1905 59.3113 32.6785 59.3113 32.0385C59.3113 31.4145 59.4873 30.8759 59.8393 30.4225C60.1966 29.9692 60.682 29.6252 61.2953 29.3905C61.914 29.1505 62.6126 29.0305 63.3913 29.0305C64.8793 29.0305 65.9886 29.2679 66.7193 29.7425C67.4553 30.2172 67.834 30.9799 67.8553 32.0305L65.5353 32.6865C65.5566 32.4945 65.5673 32.3559 65.5673 32.2705C65.562 31.7852 65.3806 31.4332 65.0233 31.2145C64.666 30.9959 64.1193 30.8865 63.3833 30.8865C62.77 30.8865 62.29 30.9825 61.9433 31.1745C61.5966 31.3612 61.4233 31.6412 61.4233 32.0145C61.4233 32.3079 61.4953 32.5319 61.6393 32.6865C61.7886 32.8359 62.0633 32.9585 62.4633 33.0545C62.8633 33.1505 63.4926 33.2492 64.3513 33.3505C65.3113 33.4625 66.0686 33.6279 66.6233 33.8465C67.178 34.0652 67.5753 34.3585 67.8153 34.7265C68.0606 35.0892 68.1833 35.5585 68.1833 36.1345ZM78.7711 26.8945C80.4404 26.8945 81.7364 27.2545 82.6591 27.9745C83.5817 28.6892 84.0431 29.7825 84.0431 31.2545C84.0431 32.2572 83.8297 33.0759 83.4031 33.7105C82.9817 34.3452 82.3391 34.8145 81.4751 35.1185C80.6111 35.4225 79.5071 35.5745 78.1631 35.5745H76.1871V38.8945H73.7071V26.8945H78.7711ZM78.2911 33.4225C79.0057 33.4225 79.5951 33.3559 80.0591 33.2225C80.5231 33.0892 80.8751 32.8652 81.1151 32.5505C81.3551 32.2305 81.4751 31.7985 81.4751 31.2545C81.4751 30.6999 81.3764 30.2625 81.1791 29.9425C80.9871 29.6225 80.6884 29.3932 80.2831 29.2545C79.8777 29.1159 79.3364 29.0465 78.6591 29.0465H76.1871V33.4225H78.2911ZM87.8064 26.4705V38.8945H85.4304V26.9745L87.8064 26.4705ZM94.1319 29.0305C95.1986 29.0305 96.0573 29.1719 96.7079 29.4545C97.3586 29.7372 97.8306 30.1639 98.1239 30.7345C98.4226 31.2999 98.5719 32.0279 98.5719 32.9185V38.9025H96.3319L96.6039 36.1105L96.2199 36.0465C95.8199 37.0865 95.2786 37.8625 94.5959 38.3745C93.9133 38.8812 93.1213 39.1345 92.2199 39.1345C91.4039 39.1345 90.7613 38.9399 90.2919 38.5505C89.8226 38.1559 89.5879 37.5985 89.5879 36.8785C89.5879 36.2545 89.7719 35.7559 90.1399 35.3825C90.5079 35.0039 91.0946 34.7132 91.8999 34.5105C92.1719 34.4412 92.5373 34.3505 92.9959 34.2385C93.8439 34.0305 94.4679 33.8625 94.8679 33.7345C95.2733 33.6065 95.5906 33.4572 95.8199 33.2865C96.0493 33.1105 96.1639 32.8919 96.1639 32.6305C96.1639 32.0865 95.9799 31.6972 95.6119 31.4625C95.2493 31.2225 94.7373 31.1025 94.0759 31.1025C93.3826 31.1025 92.8279 31.2492 92.4119 31.5425C91.9959 31.8359 91.7879 32.2492 91.7879 32.7825C91.7879 33.0919 91.8466 33.3612 91.9639 33.5905L89.4919 33.1505C89.4279 32.8572 89.3959 32.5932 89.3959 32.3585C89.3959 31.7665 89.5666 31.2199 89.9079 30.7185C90.2546 30.2119 90.7826 29.8039 91.4919 29.4945C92.2013 29.1852 93.0813 29.0305 94.1319 29.0305ZM93.0999 37.3505C93.4893 37.3505 93.8466 37.2919 94.1719 37.1745C94.5026 37.0572 94.8306 36.8519 95.1559 36.5585C95.4866 36.2599 95.8226 35.8439 96.1639 35.3105V33.9105L96.0919 33.8785C95.8999 34.0172 95.6466 34.1479 95.3319 34.2705C95.0173 34.3932 94.5479 34.5425 93.9239 34.7185C93.3586 34.8785 92.9239 35.0359 92.6199 35.1905C92.3213 35.3399 92.1133 35.5025 91.9959 35.6785C91.8839 35.8545 91.8279 36.0652 91.8279 36.3105C91.8279 36.6305 91.9373 36.8839 92.1559 37.0705C92.3746 37.2572 92.6893 37.3505 93.0999 37.3505ZM107.577 29.2705H110.113L106.601 38.1985C106.335 38.8759 106.036 39.4119 105.705 39.8065C105.38 40.2065 105.009 40.4892 104.593 40.6545C104.183 40.8252 103.703 40.9105 103.153 40.9105C102.268 40.9105 101.423 40.6705 100.617 40.1905L101.113 38.0785C101.764 38.6225 102.369 38.8945 102.929 38.8945C103.308 38.8945 103.631 38.7825 103.897 38.5585C104.164 38.3345 104.409 37.9185 104.633 37.3105L104.649 37.2705H102.689L99.4094 29.2705H101.953L104.617 36.2465H105.025L107.577 29.2705Z" fill="white"/>
<circle cx="159.439" cy="32.5611" r="24.7018" fill="white"/>
<circle cx="159.44" cy="32.5616" r="21.614" stroke="#18004C" stroke-width="1.68421"/>
<path fill-rule="evenodd" clip-rule="evenodd" d="M160.891 23.907C161.33 23.4685 162.04 23.4685 162.479 23.907L170.339 31.7666C170.549 31.9772 170.668 32.2628 170.668 32.5606C170.668 32.8584 170.549 33.144 170.339 33.3545L162.479 41.2142C162.04 41.6527 161.33 41.6527 160.891 41.2142C160.453 40.7757 160.453 40.0648 160.891 39.6263L166.834 33.6834L149.334 33.6834C148.714 33.6834 148.211 33.1807 148.211 32.5606C148.211 31.9405 148.714 31.4378 149.334 31.4378L166.834 31.4378L160.891 25.4949C160.453 25.0564 160.453 24.3455 160.891 23.907Z" fill="#18004C"/>
<defs>
<linearGradient id="paint0_linear_418_5672" x1="175.719" y1="91.5088" x2="16.8421" y2="-35.9298" gradientUnits="userSpaceOnUse">
<stop stop-color="#2B48E6"/>
<stop offset="1" stop-color="#2B48E6"/>
</linearGradient>
</defs>
</svg>
