<svg width="51" height="51" viewBox="0 0 51 51" fill="none" xmlns="http://www.w3.org/2000/svg">
<circle cx="25.4361" cy="25.5616" r="24.7018" fill="white"/>
<circle cx="25.4366" cy="25.5616" r="21.614" stroke="#18004C" stroke-width="1.68421"/>
<path fill-rule="evenodd" clip-rule="evenodd" d="M26.8881 16.9085C27.3266 16.47 28.0376 16.47 28.4761 16.9085L36.3359 24.7681C36.5465 24.9787 36.6648 25.2643 36.6648 25.5621C36.6648 25.8598 36.5465 26.1454 36.3359 26.356L28.4761 34.2157C28.0376 34.6541 27.3266 34.6541 26.8881 34.2157C26.4496 33.7772 26.4496 33.0662 26.8881 32.6278L32.8312 26.6849L15.3308 26.6849C14.7107 26.6849 14.208 26.1822 14.208 25.5621C14.208 24.9419 14.7107 24.4392 15.3308 24.4392L32.8312 24.4392L26.8881 18.4963C26.4496 18.0579 26.4496 17.3469 26.8881 16.9085Z" fill="#18004C"/>
</svg>
