<svg width="54" height="24" viewBox="0 0 54 24" fill="none" xmlns="http://www.w3.org/2000/svg">
<rect width="53.0526" height="24" rx="12" fill="#B0A5BC"/>
<circle cx="13.1053" cy="12.1053" r="10.1053" fill="white"/>
<circle cx="13.1055" cy="12.1053" r="8.80766" stroke="#B0A5BC" stroke-width="0.757895"/>
<path d="M16.0483 12.5247V12.6195H16.143H16.8768C16.9539 12.6195 17.0309 12.6254 17.107 12.637L17.2161 12.6538V12.5434V10.9612C17.2161 8.75001 15.342 6.95788 13.0466 6.95788C10.7513 6.95788 8.87687 8.74986 8.87687 10.9612V12.5434V12.6538L8.98596 12.637C9.06207 12.6254 9.13903 12.6195 9.21612 12.6195H9.94953H10.0443V12.5247V10.973C10.0443 9.39102 11.3873 8.09722 13.0463 8.09722C14.7053 8.09722 16.0483 9.39129 16.0483 10.973V12.5247ZM10.5922 12.8375V12.7427H10.4974H9.27499C8.55242 12.7427 7.95788 13.3074 7.95788 14.01V14.7917C7.95788 15.4943 8.55242 16.059 9.27499 16.059H10.4974H10.5922V15.9643V12.8375ZM15.713 12.7427H15.6182V12.8375V15.9643V16.059H15.713H16.9358C17.6584 16.059 18.2529 15.4943 18.2529 14.7917V14.01V14.01C18.2525 13.3074 17.6578 12.7427 16.9358 12.7427H15.713ZM13.3629 11.8995H13.363L13.3629 11.8965C13.3608 11.83 13.3318 11.7677 13.2833 11.7226C13.235 11.6776 13.1711 11.653 13.1053 11.653C13.0394 11.653 12.9755 11.6776 12.9272 11.7226C12.8787 11.7677 12.8497 11.83 12.8476 11.8965L12.8476 11.8965V11.8995V16.9024H12.8476L12.8476 16.9054C12.8497 16.9719 12.8787 17.0342 12.9272 17.0793C12.9755 17.1243 13.0394 17.1489 13.1053 17.1489C13.1711 17.1489 13.235 17.1243 13.2833 17.0793C13.3318 17.0342 13.3608 16.9719 13.3629 16.9054L13.3629 16.9054V16.9024V11.8995ZM12.2225 15.4982L12.2226 15.4982V15.4952V13.3064H12.2226L12.2225 13.3034C12.2205 13.2369 12.1915 13.1746 12.143 13.1295C12.0947 13.0845 12.0307 13.06 11.9649 13.06C11.8991 13.06 11.8352 13.0845 11.7868 13.1295C11.7384 13.1746 11.7094 13.2369 11.7073 13.3034L11.7073 13.3034V13.3064V15.4952H11.7072L11.7073 15.4982C11.7094 15.5647 11.7384 15.627 11.7868 15.6721C11.8352 15.7171 11.8991 15.7417 11.9649 15.7417C12.0307 15.7417 12.0947 15.7171 12.143 15.6721C12.1915 15.627 12.2205 15.5647 12.2225 15.4982ZM14.504 13.3064H14.5041L14.504 13.3034C14.5019 13.2369 14.4729 13.1746 14.4245 13.1295C14.3761 13.0845 14.3122 13.06 14.2464 13.06C14.1806 13.06 14.1166 13.0845 14.0683 13.1295C14.0198 13.1746 13.9908 13.2369 13.9888 13.3034L13.9887 13.3034V13.3064V15.4952H13.9887L13.9888 15.4982C13.9908 15.5647 14.0198 15.627 14.0683 15.6721C14.1166 15.7171 14.1806 15.7417 14.2464 15.7417C14.3122 15.7417 14.3761 15.7171 14.4245 15.6721C14.4729 15.627 14.5019 15.5647 14.504 15.4982L14.504 15.4982V15.4952V13.3064Z" fill="#B0A5BC" stroke="#B0A5BC" stroke-width="0.189474"/>
</svg>
