<svg width="1548" height="1548" viewBox="0 0 1548 1548" fill="none" xmlns="http://www.w3.org/2000/svg">
<path fill-rule="evenodd" clip-rule="evenodd" d="M550.98 350.553C529.872 230.035 524.906 177.027 523.664 33.5051L321.591 0C318.177 37.6724 330.717 153.623 408.194 316.048C505.04 519.078 586.055 594.59 603.438 572.086C612.65 560.161 603.294 532.506 589.321 491.206C576.927 454.573 560.901 407.204 550.98 350.553ZM505.04 363.059C480.518 376.477 406.642 53.6116 450.719 58.5133C467.734 58.5133 471.811 100.11 476.817 151.175L476.817 151.176C479.025 173.705 481.414 198.077 485.174 221.533C488.898 244.766 493.092 267.168 496.811 287.038C504.719 329.283 510.484 360.08 505.04 363.059Z" fill="url(#paint0_linear_738_4580)"/>
<path d="M1036.14 343.069C1096.56 301.541 1202.68 228.594 1348.1 210.032C1475.32 193.791 1518.11 207.947 1533.65 213.09C1535.63 213.743 1537.16 214.251 1538.37 214.532L1541.17 49.0074C1534.82 50.7145 1523.29 52.4101 1507.75 54.6949C1453.96 62.6036 1352.16 77.5724 1251.25 124.519C1103.35 185.899 966.253 330.55 978.716 368.056C982.635 379.849 1002.16 366.43 1036.14 343.069Z" fill="url(#paint1_linear_738_4580)"/>
<path d="M1088.89 455.825C1135.66 446.215 1206.46 431.667 1284.46 443.567C1400.53 461.272 1481.05 505.243 1510.75 523.58L1516.65 339.552C1472.15 333.884 1351.39 329.95 1224.25 359.555C1097.1 389.159 1025.9 433.066 1031.48 457.069C1033.83 467.141 1055.08 462.773 1088.89 455.825Z" fill="url(#paint2_linear_738_4580)"/>
<path d="M1330.09 632.595C1250.11 585.429 1178.67 570.891 1129.15 560.815C1084.69 551.768 1057.9 546.318 1058.49 524.08C1059.2 497.076 1161.98 475.471 1269.25 497.075C1376.53 518.678 1451.36 566.42 1475.36 587.59L1471.02 736.612C1470.7 736.265 1470.33 735.838 1469.89 735.33C1462.26 726.559 1433.62 693.65 1330.09 632.595Z" fill="url(#paint3_linear_738_4580)"/>
<path fill-rule="evenodd" clip-rule="evenodd" d="M1078.98 688.604C1083.32 651.598 1309.92 717.106 1443.39 808.12C1550.17 880.931 1548 885.132 1548 885.132L1425.39 1368.7C1415.66 1277.86 1372.62 1081.16 1286.02 935.639C1192.03 777.712 1127.36 731.091 1097.57 709.617C1084.51 700.198 1078.15 695.617 1078.98 688.604ZM1370.76 850.63C1335.06 815.124 1235.53 743.113 1230.45 760.115C1227.97 768.419 1241.54 782.806 1262.43 804.966C1284.32 828.18 1320.15 859.422 1348.1 901.636C1396.83 968.646 1406.45 1001.15 1430.04 1052.66L1470.71 962.648C1463.34 954.467 1453.35 942.932 1442.24 930.099L1442.23 930.084L1442.18 930.027L1442.16 930.008L1442.16 930.001L1442.15 929.996C1418.64 902.839 1390.13 869.899 1370.76 850.63Z" fill="url(#paint4_linear_738_4580)"/>
<path d="M1279.19 1067.16C1215.24 898.136 1089.84 763.617 1072.15 788.616C1063.32 801.093 1074.9 821.421 1095.66 857.866C1116.5 894.443 1146.59 947.255 1174.58 1024.66C1224.41 1162.46 1237.49 1345.03 1233.25 1437.21L1387.83 1424.71C1371.17 1358.54 1330.34 1202.38 1279.19 1067.16Z" fill="url(#paint5_linear_738_4580)"/>
<path fill-rule="evenodd" clip-rule="evenodd" d="M1176.75 1352.22C1155.03 1027.66 1034.9 849.147 1017.83 874.151C1010.89 884.312 1014.51 900.83 1020.86 929.782C1030.14 972.071 1045.23 1040.89 1041.73 1155.17C1038.92 1246.98 1019.63 1373.14 1006.44 1459.4C1001.81 1489.66 997.938 1515 995.788 1532.23C1051.87 1568.24 1190.38 1555.83 1176.75 1352.22ZM1098.22 1232.2C1128.64 1220.61 1089.84 1042 1075.87 1056.17C1069.34 1062.8 1072.79 1088.4 1077.28 1121.72L1077.28 1121.73C1078.56 1131.18 1079.91 1141.25 1081.15 1151.69C1082.57 1163.65 1083.07 1176.14 1083.53 1187.64V1187.64L1083.53 1187.64C1084.64 1215.2 1085.52 1237.04 1098.22 1232.2Z" fill="url(#paint6_linear_738_4580)"/>
<path d="M986.787 1340.22C1028.38 1104.17 988.649 964.658 967.231 971.159C959.432 973.526 958.445 991.119 956.777 1020.86C954.992 1052.66 952.428 1098.36 939.916 1154.19C928.94 1203.15 891.571 1295.61 861.609 1369.74L861.608 1369.74C851.299 1395.24 841.867 1418.58 834.689 1437.23C869.557 1477.4 956.488 1512.17 986.787 1340.22Z" fill="url(#paint7_linear_738_4580)"/>
<path d="M850.519 1166.68C860.142 1170.18 823.825 1354.2 796.819 1369.21C784.63 1375.98 758.743 1364.87 747.465 1359.21C764.848 1332.87 796.345 1273.56 812.029 1242.19C818.588 1229.07 824.199 1215.02 829.148 1202.64C837.783 1181.02 844.402 1164.45 850.519 1166.68Z" fill="url(#paint8_linear_738_4580)"/>
<path d="M809.546 1133.15C806.09 1130.9 800.31 1142.21 790.871 1160.67C771.321 1198.91 736.078 1267.86 673.279 1310.67C656.103 1341.34 652.606 1413.99 697.801 1391.19C754.294 1362.68 825.687 1143.65 809.546 1133.15Z" fill="url(#paint9_linear_738_4580)"/>
<path fill-rule="evenodd" clip-rule="evenodd" d="M590.401 1407.71C628.891 1365.71 746.844 1123.67 728.841 1092.67C720.039 1077.51 703.298 1093.19 674.846 1119.84C645.103 1147.7 602.56 1187.55 542.909 1216.68C449.54 1262.29 368.255 1284.69 339.284 1290.19L590.401 1407.71ZM654.965 1189.18C652.797 1186.93 634.1 1200.62 610.433 1217.94C586.655 1235.34 557.86 1256.41 535.77 1268.69C522.63 1296.7 505.971 1347.8 544.461 1328.2C592.574 1303.7 659.311 1193.68 654.965 1189.18Z" fill="url(#paint10_linear_738_4580)"/>
<path fill-rule="evenodd" clip-rule="evenodd" d="M370.325 1022.15C295.361 1014.35 228.16 984.149 128.21 914.138L46.2632 1270.19C80.9249 1272.19 186.876 1262.59 333.387 1208.18C516.525 1140.17 618.958 1017.65 609.336 999.651C603.334 988.423 581.441 994.059 547.74 1002.74C504.891 1013.77 442.953 1029.71 370.325 1022.15ZM343.942 1108.16C344.874 1135.17 219.779 1158.67 219.781 1125.17C219.783 1093.13 243.871 1095.69 270.368 1098.51L270.37 1098.51C277.372 1099.25 284.543 1100.02 291.482 1100.16C298.342 1100.31 305.028 1100.12 311.203 1099.94H311.22C329.714 1099.41 343.627 1099.01 343.942 1108.16Z" fill="url(#paint11_linear_738_4580)"/>
<path fill-rule="evenodd" clip-rule="evenodd" d="M125.106 513.577C225.987 668.601 253.613 710.607 362.565 780.118C418.836 816.018 477.922 836.045 522.29 851.083C563.827 865.162 592.465 874.868 593.815 889.134C596.609 918.639 426.197 993.65 223.193 863.63C20.1893 733.611 -0.607765 701.106 0.0130424 698.105C0.509688 695.705 83.6151 574.087 125.106 513.577ZM157.077 702.11C139.753 747.617 372.498 873.636 376.533 849.633C377.708 842.641 359.112 830.58 332.918 813.592L332.917 813.591L332.913 813.589C316.967 803.247 298.206 791.08 279.376 777.118C266.578 767.628 253.683 757.559 241.307 747.895L241.306 747.894C199.117 714.948 162.944 686.701 157.077 702.11Z" fill="url(#paint12_linear_738_4580)"/>
<path d="M372.808 576.087C302.39 503.722 257.338 444.567 142.488 253.038L81.6492 362.055C95.5139 384.891 148.2 457.469 248.026 565.085C372.808 699.606 532.976 739.612 535.149 715.108C536.169 703.602 521.038 693.419 495.026 675.914C465.641 656.139 422.369 627.018 372.808 576.087Z" fill="url(#paint13_linear_738_4580)"/>
<path d="M276.583 74.0112C312.9 221.533 342.699 313.047 417.506 447.067C456.494 516.916 494.301 564.623 520.734 597.977C545.018 628.62 559.701 647.148 556.877 659.6C550.98 685.603 434.889 594.09 315.383 428.565C219.779 296.145 155.939 153.69 135.97 99.0149L276.583 74.0112Z" fill="url(#paint14_linear_738_4580)"/>
<path d="M645.032 63.5096C640.066 151.023 643.473 227.81 645.032 259.039C647.119 300.835 653.361 340.939 658.183 371.924C663.4 405.445 666.956 428.293 661.794 431.065C652.792 435.899 616.475 371.556 603.438 240.036C593.008 134.82 597.23 53.5081 600.644 26.0039L645.032 63.5096Z" fill="url(#paint15_linear_738_4580)"/>
<path d="M707.26 322.617C707.572 256.863 708.036 159.069 736.601 93.014L683.833 33.005C678.142 51.5078 666.202 107.616 663.967 184.028C661.173 279.542 689.109 398.06 700.905 392.559C706.941 389.744 707.073 361.897 707.26 322.617Z" fill="url(#paint16_linear_738_4580)"/>
<path d="M780.058 94.0142C747.776 180.027 734.118 356.054 754.915 363.055C761.505 365.273 764.121 345.557 767.852 317.422C771.855 287.25 777.141 247.396 789.991 214.532C809.126 165.592 826.495 136.141 834.224 123.034L834.227 123.029C835.297 121.215 836.182 119.714 836.862 118.518L780.058 94.0142Z" fill="url(#paint17_linear_738_4580)"/>
<path d="M844.311 258.539C859.345 227.65 874.42 204.031 943.02 119.018L891.493 73.5111C877.214 99.0149 844.435 165.125 823.825 225.534C798.061 301.045 792.474 373.69 799.303 379.557C803.521 383.182 809.774 361.981 817.84 334.632C825.207 309.653 834.087 279.546 844.311 258.539Z" fill="url(#paint18_linear_738_4580)"/>
<path d="M1070.29 106.516C991.443 176.527 906.499 299.816 925.947 317.048C933.699 323.916 954.758 300.379 982.554 269.313C999.282 250.618 1018.45 229.195 1038.62 210.032C1073.55 176.857 1123.25 152.223 1156.85 135.568C1166.19 130.939 1174.29 126.927 1180.48 123.519L1070.29 106.516Z" fill="url(#paint19_linear_738_4580)"/>
<path d="M601.575 885.633C603.748 916.137 635.72 897.634 634.168 881.132C632.616 864.629 601.575 866.13 601.575 885.633Z" fill="url(#paint20_linear_738_4580)"/>
<path d="M617.716 997.15C625.166 1019.65 659 995.649 651.551 974.646C644.101 953.643 612.75 980.647 617.716 997.15Z" fill="url(#paint21_linear_738_4580)"/>
<path d="M732.876 1077.66C744.982 1089.66 763.917 1050.66 753.363 1038.66C742.809 1026.65 725.427 1067.16 732.876 1077.66Z" fill="url(#paint22_linear_738_4580)"/>
<path d="M816.375 1117.17C828.791 1124.17 832.516 1082.16 826.308 1077.66C820.1 1073.16 808.304 1110.67 816.375 1117.17Z" fill="url(#paint23_linear_738_4580)"/>
<path d="M853.934 1146.17C863.246 1152.17 871.627 1114.67 865.108 1111.17C858.59 1107.67 846.174 1141.67 853.934 1146.17Z" fill="url(#paint24_linear_738_4580)"/>
<path d="M949.849 912.637C962.886 903.135 974.06 949.642 961.954 958.644C949.849 967.645 939.295 922.138 949.849 912.637Z" fill="url(#paint25_linear_738_4580)"/>
<path d="M993.305 836.625C1003.86 824.123 1016.59 859.129 1010.38 869.13C1004.17 879.132 986.166 845.126 993.305 836.625Z" fill="url(#paint26_linear_738_4580)"/>
<path d="M1033.35 749.112C1023.1 769.115 1053.83 792.619 1059.73 779.617C1065.63 766.615 1040.8 735.11 1033.35 749.112Z" fill="url(#paint27_linear_738_4580)"/>
<path d="M1045.76 678.603C1043.9 696.605 1067.8 701.606 1070.29 686.104C1072.77 670.602 1048.25 664.601 1045.76 678.603Z" fill="url(#paint28_linear_738_4580)"/>
<path d="M1024.04 531.081C1025.59 555.584 1052.9 544.583 1051.35 526.58C1049.8 508.577 1024.04 513.578 1024.04 531.081Z" fill="url(#paint29_linear_738_4580)"/>
<path d="M1002 471.571C1006.65 488.073 1028.07 475.571 1024.04 459.569C1020 443.566 999.824 457.068 1002 471.571Z" fill="url(#paint30_linear_738_4580)"/>
<path d="M942.399 399.561C951.09 419.064 970.646 393.06 964.438 378.057C958.229 363.055 937.122 384.058 942.399 399.561Z" fill="url(#paint31_linear_738_4580)"/>
<path d="M891.182 368.555C902.357 381.557 915.394 350.052 907.323 340.551C899.253 331.049 884.664 359.053 891.182 368.555Z" fill="url(#paint32_linear_738_4580)"/>
<path d="M795.267 392.559C805.2 399.561 800.234 428.565 792.474 427.064C784.714 425.564 789.68 392.559 795.267 392.559Z" fill="url(#paint33_linear_738_4580)"/>
<path d="M758.019 384.558C748.707 385.058 749.328 414.062 756.777 414.563C764.227 415.063 763.606 384.558 758.019 384.558Z" fill="url(#paint34_linear_738_4580)"/>
<path d="M703.698 403.561C695.007 407.561 699.353 443.567 708.044 439.066C716.735 434.566 712.079 403.561 703.698 403.561Z" fill="url(#paint35_linear_738_4580)"/>
<path d="M666.45 439.066C676.072 434.065 680.728 460.569 673.589 464.57C666.45 468.571 659.311 443.067 666.45 439.066Z" fill="url(#paint36_linear_738_4580)"/>
<path d="M607.163 586.088C595.988 601.591 618.958 633.596 629.512 620.594C640.066 607.592 618.027 574.587 607.163 586.088Z" fill="url(#paint37_linear_738_4580)"/>
<path d="M576.743 672.601C573.018 681.603 591.022 703.606 597.23 693.605C603.438 683.603 582.33 662.1 576.743 672.601Z" fill="url(#paint38_linear_738_4580)"/>
<path d="M541.668 718.608C537.012 736.611 566.189 746.113 573.329 731.11C580.468 716.108 546.324 702.106 541.668 718.608Z" fill="url(#paint39_linear_738_4580)"/>
<path d="M615.544 745.613C612.129 757.614 629.512 753.614 629.512 745.613C629.512 737.611 618.027 737.611 615.544 745.613Z" fill="url(#paint40_linear_738_4580)"/>
<path d="M771.677 999.651C777.264 1005.65 789.68 987.149 781.92 978.148C774.16 969.146 767.952 992.65 771.677 999.651Z" fill="url(#paint41_linear_738_4580)"/>
<path d="M788.749 958.644C792.163 960.645 801.165 950.143 796.199 944.643C791.232 939.142 786.266 953.642 788.749 958.644Z" fill="url(#paint42_linear_738_4580)"/>
<path d="M833.758 1030.16C841.207 1031.66 844.932 1011.65 838.414 1008.15C831.895 1004.65 827.239 1025.65 833.758 1030.16Z" fill="url(#paint43_linear_738_4580)"/>
<path d="M838.414 991.15C843.07 993.15 846.174 984.149 840.897 981.148C835.62 978.148 835.93 988.649 838.414 991.15Z" fill="url(#paint44_linear_738_4580)"/>
<path d="M865.108 1077.66C876.283 1082.66 875.352 1062.66 868.833 1061.16C862.315 1059.66 861.383 1073.16 865.108 1077.66Z" fill="url(#paint45_linear_738_4580)"/>
<path d="M867.281 1038.66C871.627 1040.66 872.558 1028.16 868.833 1024.65C865.108 1021.15 865.729 1035.65 867.281 1038.66Z" fill="url(#paint46_linear_738_4580)"/>
<path d="M928.741 850.628C937.743 842.627 927.81 824.624 920.05 829.625C912.29 834.626 921.912 854.129 928.741 850.628Z" fill="url(#paint47_linear_738_4580)"/>
<path d="M912.911 808.622C906.702 812.123 905.461 799.121 908.565 796.12C911.669 793.12 917.256 806.122 912.911 808.622Z" fill="url(#paint48_linear_738_4580)"/>
<path d="M973.439 816.123C978.095 808.622 969.714 790.619 961.954 799.621C954.194 808.622 968.783 823.624 973.439 816.123Z" fill="url(#paint49_linear_738_4580)"/>
<path d="M944.572 785.118C949.849 779.617 959.161 789.119 954.505 796.12C949.849 803.121 940.847 790.62 944.572 785.118Z" fill="url(#paint50_linear_738_4580)"/>
<path d="M1006.34 730.61C1000.75 747.113 983.993 729.61 988.028 720.109C992.063 710.607 1010.07 717.608 1006.34 730.61Z" fill="url(#paint51_linear_738_4580)"/>
<path d="M973.439 708.107C971.577 715.608 961.954 711.607 961.954 702.606C961.954 693.605 974.991 700.606 973.439 708.107Z" fill="url(#paint52_linear_738_4580)"/>
<path d="M1010.38 668.101C1010.38 659.099 996.72 661.1 997.34 668.101C997.961 675.102 1010.38 675.102 1010.38 668.101Z" fill="url(#paint53_linear_738_4580)"/>
<path d="M968.162 662.1C968.162 670.601 977.785 667.101 978.406 662.1C979.027 657.099 968.162 656.099 968.162 662.1Z" fill="url(#paint54_linear_738_4580)"/>
<path d="M982.131 542.082C979.647 531.081 959.471 533.08 961.954 547.083C964.438 561.085 982.131 550.083 982.131 542.082Z" fill="url(#paint55_linear_738_4580)"/>
<path d="M935.965 554.825C937.022 561.659 944.572 555.403 944.572 550.083C944.572 544.582 936.05 548.565 935.965 554.825Z" fill="url(#paint56_linear_738_4580)"/>
<path d="M961.954 494.575C958.54 482.073 941.778 491.574 944.572 502.576C947.365 513.577 963.506 502.576 961.954 494.575Z" fill="url(#paint57_linear_738_4580)"/>
<path d="M930.604 512.077C930.914 522.579 923.464 523.079 922.533 515.578C921.602 508.077 929.362 505.576 930.604 512.077Z" fill="url(#paint58_linear_738_4580)"/>
<path d="M915.394 432.565C919.119 439.066 908.254 449.068 904.84 446.067C901.426 443.067 911.979 426.064 915.394 432.565Z" fill="url(#paint59_linear_738_4580)"/>
<path d="M891.182 463.07C894.597 469.071 886.526 476.572 884.664 474.072C882.801 471.571 888.389 459.069 891.182 463.07Z" fill="url(#paint60_linear_738_4580)"/>
<path d="M882.801 399.561C886.837 403.561 879.387 417.563 875.972 414.563C872.558 411.562 877.524 395.56 882.801 399.561Z" fill="url(#paint61_linear_738_4580)"/>
<path d="M863.867 443.067C866.971 446.067 874.11 438.066 871.316 432.565C868.523 427.064 861.694 440.066 863.867 443.067Z" fill="url(#paint62_linear_738_4580)"/>
<path d="M786.887 467.07C792.474 469.071 791.853 485.073 786.887 486.573C781.92 488.074 783.783 467.07 786.887 467.07Z" fill="url(#paint63_linear_738_4580)"/>
<path d="M785.335 512.077C789.37 512.077 789.68 502.576 786.887 502.576C784.093 502.576 783.783 512.643 785.335 512.077Z" fill="url(#paint64_linear_738_4580)"/>
<path d="M758.019 443.067C762.365 443.067 760.813 454.569 758.019 457.069C755.225 459.569 755.225 443.067 758.019 443.067Z" fill="url(#paint65_linear_738_4580)"/>
<path d="M763.606 477.572C758.019 480.072 760.813 486.573 763.606 486.573C766.4 486.573 765.469 476.33 763.606 477.572Z" fill="url(#paint66_linear_738_4580)"/>
<path d="M716.115 486.573C725.116 484.573 724.185 499.575 720.15 502.576C716.115 505.576 709.596 489.574 716.115 486.573Z" fill="url(#paint67_linear_738_4580)"/>
<path d="M723.564 512.077C726.979 512.077 726.979 518.078 723.564 520.579C720.15 523.079 720.771 512.077 723.564 512.077Z" fill="url(#paint68_linear_738_4580)"/>
<path d="M684.143 494.575C691.282 489.574 695.317 508.577 690.351 512.077C685.385 515.578 677.935 499.575 684.143 494.575Z" fill="url(#paint69_linear_738_4580)"/>
<path d="M695.317 523.579C699.042 520.579 703.388 526.58 699.353 531.081C695.317 535.581 693.455 526.579 695.317 523.579Z" fill="url(#paint70_linear_738_4580)"/>
<defs>
<linearGradient id="paint0_linear_738_4580" x1="774" y1="0" x2="774" y2="1548" gradientUnits="userSpaceOnUse">
<stop stop-color="#1E5781"/>
<stop offset="1" stop-color="#298997"/>
</linearGradient>
<linearGradient id="paint1_linear_738_4580" x1="774" y1="0" x2="774" y2="1548" gradientUnits="userSpaceOnUse">
<stop stop-color="#1E5781"/>
<stop offset="1" stop-color="#298997"/>
</linearGradient>
<linearGradient id="paint2_linear_738_4580" x1="774" y1="0" x2="774" y2="1548" gradientUnits="userSpaceOnUse">
<stop stop-color="#1E5781"/>
<stop offset="1" stop-color="#298997"/>
</linearGradient>
<linearGradient id="paint3_linear_738_4580" x1="774" y1="0" x2="774" y2="1548" gradientUnits="userSpaceOnUse">
<stop stop-color="#1E5781"/>
<stop offset="1" stop-color="#298997"/>
</linearGradient>
<linearGradient id="paint4_linear_738_4580" x1="774" y1="0" x2="774" y2="1548" gradientUnits="userSpaceOnUse">
<stop stop-color="#1E5781"/>
<stop offset="1" stop-color="#298997"/>
</linearGradient>
<linearGradient id="paint5_linear_738_4580" x1="774" y1="0" x2="774" y2="1548" gradientUnits="userSpaceOnUse">
<stop stop-color="#1E5781"/>
<stop offset="1" stop-color="#298997"/>
</linearGradient>
<linearGradient id="paint6_linear_738_4580" x1="774" y1="0" x2="774" y2="1548" gradientUnits="userSpaceOnUse">
<stop stop-color="#1E5781"/>
<stop offset="1" stop-color="#298997"/>
</linearGradient>
<linearGradient id="paint7_linear_738_4580" x1="774" y1="0" x2="774" y2="1548" gradientUnits="userSpaceOnUse">
<stop stop-color="#1E5781"/>
<stop offset="1" stop-color="#298997"/>
</linearGradient>
<linearGradient id="paint8_linear_738_4580" x1="774" y1="0" x2="774" y2="1548" gradientUnits="userSpaceOnUse">
<stop stop-color="#1E5781"/>
<stop offset="1" stop-color="#298997"/>
</linearGradient>
<linearGradient id="paint9_linear_738_4580" x1="774" y1="0" x2="774" y2="1548" gradientUnits="userSpaceOnUse">
<stop stop-color="#1E5781"/>
<stop offset="1" stop-color="#298997"/>
</linearGradient>
<linearGradient id="paint10_linear_738_4580" x1="774" y1="0" x2="774" y2="1548" gradientUnits="userSpaceOnUse">
<stop stop-color="#1E5781"/>
<stop offset="1" stop-color="#298997"/>
</linearGradient>
<linearGradient id="paint11_linear_738_4580" x1="774" y1="0" x2="774" y2="1548" gradientUnits="userSpaceOnUse">
<stop stop-color="#1E5781"/>
<stop offset="1" stop-color="#298997"/>
</linearGradient>
<linearGradient id="paint12_linear_738_4580" x1="774" y1="0" x2="774" y2="1548" gradientUnits="userSpaceOnUse">
<stop stop-color="#1E5781"/>
<stop offset="1" stop-color="#298997"/>
</linearGradient>
<linearGradient id="paint13_linear_738_4580" x1="774" y1="0" x2="774" y2="1548" gradientUnits="userSpaceOnUse">
<stop stop-color="#1E5781"/>
<stop offset="1" stop-color="#298997"/>
</linearGradient>
<linearGradient id="paint14_linear_738_4580" x1="774" y1="0" x2="774" y2="1548" gradientUnits="userSpaceOnUse">
<stop stop-color="#1E5781"/>
<stop offset="1" stop-color="#298997"/>
</linearGradient>
<linearGradient id="paint15_linear_738_4580" x1="774" y1="0" x2="774" y2="1548" gradientUnits="userSpaceOnUse">
<stop stop-color="#1E5781"/>
<stop offset="1" stop-color="#298997"/>
</linearGradient>
<linearGradient id="paint16_linear_738_4580" x1="774" y1="0" x2="774" y2="1548" gradientUnits="userSpaceOnUse">
<stop stop-color="#1E5781"/>
<stop offset="1" stop-color="#298997"/>
</linearGradient>
<linearGradient id="paint17_linear_738_4580" x1="774" y1="0" x2="774" y2="1548" gradientUnits="userSpaceOnUse">
<stop stop-color="#1E5781"/>
<stop offset="1" stop-color="#298997"/>
</linearGradient>
<linearGradient id="paint18_linear_738_4580" x1="774" y1="0" x2="774" y2="1548" gradientUnits="userSpaceOnUse">
<stop stop-color="#1E5781"/>
<stop offset="1" stop-color="#298997"/>
</linearGradient>
<linearGradient id="paint19_linear_738_4580" x1="774" y1="0" x2="774" y2="1548" gradientUnits="userSpaceOnUse">
<stop stop-color="#1E5781"/>
<stop offset="1" stop-color="#298997"/>
</linearGradient>
<linearGradient id="paint20_linear_738_4580" x1="774" y1="0" x2="774" y2="1548" gradientUnits="userSpaceOnUse">
<stop stop-color="#1E5781"/>
<stop offset="1" stop-color="#298997"/>
</linearGradient>
<linearGradient id="paint21_linear_738_4580" x1="774" y1="0" x2="774" y2="1548" gradientUnits="userSpaceOnUse">
<stop stop-color="#1E5781"/>
<stop offset="1" stop-color="#298997"/>
</linearGradient>
<linearGradient id="paint22_linear_738_4580" x1="774" y1="0" x2="774" y2="1548" gradientUnits="userSpaceOnUse">
<stop stop-color="#1E5781"/>
<stop offset="1" stop-color="#298997"/>
</linearGradient>
<linearGradient id="paint23_linear_738_4580" x1="774" y1="0" x2="774" y2="1548" gradientUnits="userSpaceOnUse">
<stop stop-color="#1E5781"/>
<stop offset="1" stop-color="#298997"/>
</linearGradient>
<linearGradient id="paint24_linear_738_4580" x1="774" y1="0" x2="774" y2="1548" gradientUnits="userSpaceOnUse">
<stop stop-color="#1E5781"/>
<stop offset="1" stop-color="#298997"/>
</linearGradient>
<linearGradient id="paint25_linear_738_4580" x1="774" y1="0" x2="774" y2="1548" gradientUnits="userSpaceOnUse">
<stop stop-color="#1E5781"/>
<stop offset="1" stop-color="#298997"/>
</linearGradient>
<linearGradient id="paint26_linear_738_4580" x1="774" y1="0" x2="774" y2="1548" gradientUnits="userSpaceOnUse">
<stop stop-color="#1E5781"/>
<stop offset="1" stop-color="#298997"/>
</linearGradient>
<linearGradient id="paint27_linear_738_4580" x1="774" y1="0" x2="774" y2="1548" gradientUnits="userSpaceOnUse">
<stop stop-color="#1E5781"/>
<stop offset="1" stop-color="#298997"/>
</linearGradient>
<linearGradient id="paint28_linear_738_4580" x1="774" y1="0" x2="774" y2="1548" gradientUnits="userSpaceOnUse">
<stop stop-color="#1E5781"/>
<stop offset="1" stop-color="#298997"/>
</linearGradient>
<linearGradient id="paint29_linear_738_4580" x1="774" y1="0" x2="774" y2="1548" gradientUnits="userSpaceOnUse">
<stop stop-color="#1E5781"/>
<stop offset="1" stop-color="#298997"/>
</linearGradient>
<linearGradient id="paint30_linear_738_4580" x1="774" y1="0" x2="774" y2="1548" gradientUnits="userSpaceOnUse">
<stop stop-color="#1E5781"/>
<stop offset="1" stop-color="#298997"/>
</linearGradient>
<linearGradient id="paint31_linear_738_4580" x1="774" y1="0" x2="774" y2="1548" gradientUnits="userSpaceOnUse">
<stop stop-color="#1E5781"/>
<stop offset="1" stop-color="#298997"/>
</linearGradient>
<linearGradient id="paint32_linear_738_4580" x1="774" y1="0" x2="774" y2="1548" gradientUnits="userSpaceOnUse">
<stop stop-color="#1E5781"/>
<stop offset="1" stop-color="#298997"/>
</linearGradient>
<linearGradient id="paint33_linear_738_4580" x1="774" y1="0" x2="774" y2="1548" gradientUnits="userSpaceOnUse">
<stop stop-color="#1E5781"/>
<stop offset="1" stop-color="#298997"/>
</linearGradient>
<linearGradient id="paint34_linear_738_4580" x1="774" y1="0" x2="774" y2="1548" gradientUnits="userSpaceOnUse">
<stop stop-color="#1E5781"/>
<stop offset="1" stop-color="#298997"/>
</linearGradient>
<linearGradient id="paint35_linear_738_4580" x1="774" y1="0" x2="774" y2="1548" gradientUnits="userSpaceOnUse">
<stop stop-color="#1E5781"/>
<stop offset="1" stop-color="#298997"/>
</linearGradient>
<linearGradient id="paint36_linear_738_4580" x1="774" y1="0" x2="774" y2="1548" gradientUnits="userSpaceOnUse">
<stop stop-color="#1E5781"/>
<stop offset="1" stop-color="#298997"/>
</linearGradient>
<linearGradient id="paint37_linear_738_4580" x1="774" y1="0" x2="774" y2="1548" gradientUnits="userSpaceOnUse">
<stop stop-color="#1E5781"/>
<stop offset="1" stop-color="#298997"/>
</linearGradient>
<linearGradient id="paint38_linear_738_4580" x1="774" y1="0" x2="774" y2="1548" gradientUnits="userSpaceOnUse">
<stop stop-color="#1E5781"/>
<stop offset="1" stop-color="#298997"/>
</linearGradient>
<linearGradient id="paint39_linear_738_4580" x1="774" y1="0" x2="774" y2="1548" gradientUnits="userSpaceOnUse">
<stop stop-color="#1E5781"/>
<stop offset="1" stop-color="#298997"/>
</linearGradient>
<linearGradient id="paint40_linear_738_4580" x1="774" y1="0" x2="774" y2="1548" gradientUnits="userSpaceOnUse">
<stop stop-color="#1E5781"/>
<stop offset="1" stop-color="#298997"/>
</linearGradient>
<linearGradient id="paint41_linear_738_4580" x1="774" y1="0" x2="774" y2="1548" gradientUnits="userSpaceOnUse">
<stop stop-color="#1E5781"/>
<stop offset="1" stop-color="#298997"/>
</linearGradient>
<linearGradient id="paint42_linear_738_4580" x1="774" y1="0" x2="774" y2="1548" gradientUnits="userSpaceOnUse">
<stop stop-color="#1E5781"/>
<stop offset="1" stop-color="#298997"/>
</linearGradient>
<linearGradient id="paint43_linear_738_4580" x1="774" y1="0" x2="774" y2="1548" gradientUnits="userSpaceOnUse">
<stop stop-color="#1E5781"/>
<stop offset="1" stop-color="#298997"/>
</linearGradient>
<linearGradient id="paint44_linear_738_4580" x1="774" y1="0" x2="774" y2="1548" gradientUnits="userSpaceOnUse">
<stop stop-color="#1E5781"/>
<stop offset="1" stop-color="#298997"/>
</linearGradient>
<linearGradient id="paint45_linear_738_4580" x1="774" y1="0" x2="774" y2="1548" gradientUnits="userSpaceOnUse">
<stop stop-color="#1E5781"/>
<stop offset="1" stop-color="#298997"/>
</linearGradient>
<linearGradient id="paint46_linear_738_4580" x1="774" y1="0" x2="774" y2="1548" gradientUnits="userSpaceOnUse">
<stop stop-color="#1E5781"/>
<stop offset="1" stop-color="#298997"/>
</linearGradient>
<linearGradient id="paint47_linear_738_4580" x1="774" y1="0" x2="774" y2="1548" gradientUnits="userSpaceOnUse">
<stop stop-color="#1E5781"/>
<stop offset="1" stop-color="#298997"/>
</linearGradient>
<linearGradient id="paint48_linear_738_4580" x1="774" y1="0" x2="774" y2="1548" gradientUnits="userSpaceOnUse">
<stop stop-color="#1E5781"/>
<stop offset="1" stop-color="#298997"/>
</linearGradient>
<linearGradient id="paint49_linear_738_4580" x1="774" y1="0" x2="774" y2="1548" gradientUnits="userSpaceOnUse">
<stop stop-color="#1E5781"/>
<stop offset="1" stop-color="#298997"/>
</linearGradient>
<linearGradient id="paint50_linear_738_4580" x1="774" y1="0" x2="774" y2="1548" gradientUnits="userSpaceOnUse">
<stop stop-color="#1E5781"/>
<stop offset="1" stop-color="#298997"/>
</linearGradient>
<linearGradient id="paint51_linear_738_4580" x1="774" y1="0" x2="774" y2="1548" gradientUnits="userSpaceOnUse">
<stop stop-color="#1E5781"/>
<stop offset="1" stop-color="#298997"/>
</linearGradient>
<linearGradient id="paint52_linear_738_4580" x1="774" y1="0" x2="774" y2="1548" gradientUnits="userSpaceOnUse">
<stop stop-color="#1E5781"/>
<stop offset="1" stop-color="#298997"/>
</linearGradient>
<linearGradient id="paint53_linear_738_4580" x1="774" y1="0" x2="774" y2="1548" gradientUnits="userSpaceOnUse">
<stop stop-color="#1E5781"/>
<stop offset="1" stop-color="#298997"/>
</linearGradient>
<linearGradient id="paint54_linear_738_4580" x1="774" y1="0" x2="774" y2="1548" gradientUnits="userSpaceOnUse">
<stop stop-color="#1E5781"/>
<stop offset="1" stop-color="#298997"/>
</linearGradient>
<linearGradient id="paint55_linear_738_4580" x1="774" y1="0" x2="774" y2="1548" gradientUnits="userSpaceOnUse">
<stop stop-color="#1E5781"/>
<stop offset="1" stop-color="#298997"/>
</linearGradient>
<linearGradient id="paint56_linear_738_4580" x1="774" y1="0" x2="774" y2="1548" gradientUnits="userSpaceOnUse">
<stop stop-color="#1E5781"/>
<stop offset="1" stop-color="#298997"/>
</linearGradient>
<linearGradient id="paint57_linear_738_4580" x1="774" y1="0" x2="774" y2="1548" gradientUnits="userSpaceOnUse">
<stop stop-color="#1E5781"/>
<stop offset="1" stop-color="#298997"/>
</linearGradient>
<linearGradient id="paint58_linear_738_4580" x1="774" y1="0" x2="774" y2="1548" gradientUnits="userSpaceOnUse">
<stop stop-color="#1E5781"/>
<stop offset="1" stop-color="#298997"/>
</linearGradient>
<linearGradient id="paint59_linear_738_4580" x1="774" y1="0" x2="774" y2="1548" gradientUnits="userSpaceOnUse">
<stop stop-color="#1E5781"/>
<stop offset="1" stop-color="#298997"/>
</linearGradient>
<linearGradient id="paint60_linear_738_4580" x1="774" y1="0" x2="774" y2="1548" gradientUnits="userSpaceOnUse">
<stop stop-color="#1E5781"/>
<stop offset="1" stop-color="#298997"/>
</linearGradient>
<linearGradient id="paint61_linear_738_4580" x1="774" y1="0" x2="774" y2="1548" gradientUnits="userSpaceOnUse">
<stop stop-color="#1E5781"/>
<stop offset="1" stop-color="#298997"/>
</linearGradient>
<linearGradient id="paint62_linear_738_4580" x1="774" y1="0" x2="774" y2="1548" gradientUnits="userSpaceOnUse">
<stop stop-color="#1E5781"/>
<stop offset="1" stop-color="#298997"/>
</linearGradient>
<linearGradient id="paint63_linear_738_4580" x1="774" y1="0" x2="774" y2="1548" gradientUnits="userSpaceOnUse">
<stop stop-color="#1E5781"/>
<stop offset="1" stop-color="#298997"/>
</linearGradient>
<linearGradient id="paint64_linear_738_4580" x1="774" y1="0" x2="774" y2="1548" gradientUnits="userSpaceOnUse">
<stop stop-color="#1E5781"/>
<stop offset="1" stop-color="#298997"/>
</linearGradient>
<linearGradient id="paint65_linear_738_4580" x1="774" y1="0" x2="774" y2="1548" gradientUnits="userSpaceOnUse">
<stop stop-color="#1E5781"/>
<stop offset="1" stop-color="#298997"/>
</linearGradient>
<linearGradient id="paint66_linear_738_4580" x1="774" y1="0" x2="774" y2="1548" gradientUnits="userSpaceOnUse">
<stop stop-color="#1E5781"/>
<stop offset="1" stop-color="#298997"/>
</linearGradient>
<linearGradient id="paint67_linear_738_4580" x1="774" y1="0" x2="774" y2="1548" gradientUnits="userSpaceOnUse">
<stop stop-color="#1E5781"/>
<stop offset="1" stop-color="#298997"/>
</linearGradient>
<linearGradient id="paint68_linear_738_4580" x1="774" y1="0" x2="774" y2="1548" gradientUnits="userSpaceOnUse">
<stop stop-color="#1E5781"/>
<stop offset="1" stop-color="#298997"/>
</linearGradient>
<linearGradient id="paint69_linear_738_4580" x1="774" y1="0" x2="774" y2="1548" gradientUnits="userSpaceOnUse">
<stop stop-color="#1E5781"/>
<stop offset="1" stop-color="#298997"/>
</linearGradient>
<linearGradient id="paint70_linear_738_4580" x1="774" y1="0" x2="774" y2="1548" gradientUnits="userSpaceOnUse">
<stop stop-color="#1E5781"/>
<stop offset="1" stop-color="#298997"/>
</linearGradient>
</defs>
</svg>
